<svg width="18" height="18" viewBox="0 0 18 18" fill="none" xmlns="http://www.w3.org/2000/svg">
<circle cx="9" cy="9" r="9" fill="#8DC018"/>
<path d="M6.39844 15H10.2109C11.013 15 11.7031 14.8724 12.2812 14.6172C12.8594 14.3568 13.3021 13.987 13.6094 13.5078C13.9219 13.0286 14.0781 12.4609 14.0781 11.8047V11.7891C14.0781 11.3047 13.9688 10.8672 13.75 10.4766C13.5365 10.0859 13.237 9.77083 12.8516 9.53125C12.4714 9.28646 12.0286 9.14062 11.5234 9.09375V8.95312C11.9036 8.89062 12.2422 8.74479 12.5391 8.51562C12.8411 8.28646 13.0807 8 13.2578 7.65625C13.4401 7.3125 13.5312 6.94271 13.5312 6.54688V6.53125C13.5312 5.95312 13.3932 5.45573 13.1172 5.03906C12.8411 4.61719 12.4479 4.29427 11.9375 4.07031C11.4271 3.84115 10.8125 3.72656 10.0938 3.72656H6.39844V5.28906H9.60938C10.2188 5.28906 10.6927 5.42969 11.0312 5.71094C11.3698 5.99219 11.5391 6.38281 11.5391 6.88281V6.89844C11.5391 7.40885 11.3516 7.79948 10.9766 8.07031C10.6068 8.34115 10.0651 8.47656 9.35156 8.47656H6.39844V9.90625H9.66406C10.1797 9.90625 10.612 9.97135 10.9609 10.1016C11.3151 10.2318 11.5807 10.4271 11.7578 10.6875C11.9349 10.9479 12.0234 11.2682 12.0234 11.6484V11.6641C12.0234 12.237 11.8307 12.6771 11.4453 12.9844C11.0599 13.2865 10.4948 13.4375 9.75 13.4375H6.39844V15ZM5.39062 15H7.40625V3.72656H5.39062V15Z" fill="white"/>
</svg>
