<svg width="24" height="24" viewBox="0 0 24 24" fill="none" xmlns="http://www.w3.org/2000/svg">
<path d="M11.8587 4.07663L6.31708 6.53871C5.74708 6.79204 5.375 7.36204 5.375 7.98746V11.7083C5.375 16.102 8.415 20.2108 12.5 21.2083C16.585 20.2108 19.625 16.102 19.625 11.7083V7.98746C19.625 7.36204 19.2529 6.79204 18.6829 6.53871L13.1413 4.07663C12.7375 3.89454 12.2625 3.89454 11.8587 4.07663V4.07663ZM10.3546 15.8962L8.30417 13.8458C7.99542 13.537 7.99542 13.0383 8.30417 12.7295C8.61292 12.4208 9.11167 12.4208 9.42042 12.7295L10.9167 14.2179L15.5717 9.56288C15.8804 9.25413 16.3792 9.25413 16.6879 9.56288C16.9967 9.87163 16.9967 10.3704 16.6879 10.6791L11.4708 15.8962C11.17 16.205 10.6633 16.205 10.3546 15.8962Z" fill="#26D07C"/>
</svg>
