<svg width="20" height="20" viewBox="0 0 20 20" fill="none" xmlns="http://www.w3.org/2000/svg">
<path d="M10.8333 2.5C6.69159 2.5 3.33325 5.85833 3.33325 10H0.833252L4.07492 13.2417L4.13325 13.3583L7.49992 10H4.99992C4.99992 6.775 7.60825 4.16667 10.8333 4.16667C14.0583 4.16667 16.6666 6.775 16.6666 10C16.6666 13.225 14.0583 15.8333 10.8333 15.8333C9.22492 15.8333 7.76659 15.175 6.71659 14.1167L5.53325 15.3C6.89159 16.6583 8.75825 17.5 10.8333 17.5C14.9749 17.5 18.3333 14.1417 18.3333 10C18.3333 5.85833 14.9749 2.5 10.8333 2.5ZM9.99992 6.66667V10.8333L13.5416 12.9333L14.1833 11.8667L11.2499 10.125V6.66667H9.99992Z" fill="#333333"/>
</svg>
