<svg width="118" height="118" viewBox="0 0 118 118" fill="none" xmlns="http://www.w3.org/2000/svg">
<mask id="mask0_320:203" style="mask-type:alpha" maskUnits="userSpaceOnUse" x="19" y="19" width="79" height="79">
<path fill-rule="evenodd" clip-rule="evenodd" d="M39.1822 33.8266C39.5751 34.2858 40.0698 34.6482 40.6273 34.8849C41.1849 35.1217 41.79 35.2263 42.3951 35.1909H53.0528C51.8342 33.5113 50.5262 31.8976 49.1345 30.3569C47.968 28.9257 46.6548 27.6191 45.2163 26.4585C44.4787 25.8396 43.5839 25.4352 42.6302 25.2892C42.0251 25.2539 41.4199 25.3584 40.8624 25.5952C40.3049 25.832 39.8102 26.1944 39.4172 26.6536C38.6551 27.6639 38.255 28.8993 38.2809 30.1623C38.1507 31.4504 38.4689 32.7438 39.1822 33.8266ZM34.6762 23.1059C35.6246 21.9624 36.8246 21.0512 38.1835 20.4428C39.5423 19.8344 41.0235 19.545 42.5127 19.5972C44.6774 19.7247 46.7531 20.4994 48.4684 21.8195C50.3005 23.1701 51.9936 24.6977 53.5229 26.3804C55.3453 28.3707 57.0564 30.4576 58.649 32.6314C60.241 30.4535 61.957 28.3663 63.7889 26.3804C65.3182 24.6977 67.0114 23.1701 68.8435 21.8195C70.5551 20.4929 72.6329 19.7174 74.7992 19.5972C76.2883 19.545 77.7696 19.8344 79.1284 20.4428C80.4872 21.0512 81.6872 21.9624 82.6356 23.1059V23.2619C84.2412 25.2662 85.1119 27.7549 85.1042 30.3179C85.1281 32.2319 84.6616 34.1083 83.7643 35.7759H90.1194C92.1978 35.7759 94.191 36.5975 95.6606 38.0597C97.1302 39.5219 97.9559 41.5049 97.9559 43.5728V51.3697C97.9559 53.4375 97.1302 55.4206 95.6606 56.8828C94.191 58.345 92.1978 59.1666 90.1194 59.1666L90.1194 86.2604C90.1194 89.3622 88.8809 92.337 86.6765 94.5303C84.472 96.7236 81.4822 97.9557 78.3647 97.9557H39.1823C36.0648 97.9557 33.0749 96.7236 30.8705 94.5303C28.6661 92.337 27.4276 89.3622 27.4276 86.2604L27.4276 59.1666C25.3492 59.1666 23.356 58.345 21.8864 56.8828C20.4167 55.4206 19.5911 53.4375 19.5911 51.3697V43.5728C19.5911 41.5049 20.4167 39.5219 21.8864 38.0597C23.356 36.5975 25.3492 35.7759 27.4276 35.7759H33.5867C32.6894 34.1083 32.223 32.2319 32.2469 30.3179C32.2503 27.7502 33.1349 25.261 34.7545 23.2619L34.6762 23.1059ZM61.7123 59.1666H84.1637V86.2604C84.1637 87.8113 83.5444 89.2987 82.4422 90.3953C81.34 91.492 79.8451 92.108 78.2863 92.108H61.7123V59.1666ZM61.7123 53.3189H90.1194C90.639 53.3189 91.1373 53.1134 91.5047 52.7478C91.8721 52.3823 92.0785 51.8866 92.0785 51.3697V43.5728C92.0785 43.0558 91.8721 42.5602 91.5047 42.1946C91.1373 41.8291 90.639 41.6236 90.1194 41.6236H61.7123V53.3189ZM55.8349 41.6236V53.3189H27.4276C26.908 53.3189 26.4097 53.1134 26.0423 52.7478C25.6749 52.3823 25.4685 51.8866 25.4685 51.3697V43.5728C25.4685 43.0558 25.6749 42.5602 26.0423 42.1946C26.4097 41.8291 26.908 41.6236 27.4276 41.6236H55.8349ZM55.8349 59.1666V92.108H39.1823C37.6235 92.108 36.1286 91.492 35.0263 90.3953C33.9241 89.2987 33.3049 87.8113 33.3049 86.2604V59.1666H55.8349ZM76.6845 34.8849C77.242 34.6482 77.7367 34.2858 78.1297 33.8266C78.843 32.7438 79.1612 31.4504 79.0309 30.1623C79.0568 28.8993 78.6568 27.6639 77.8946 26.6536C77.5016 26.1944 77.0069 25.832 76.4494 25.5952C75.8919 25.3584 75.2868 25.2539 74.6816 25.2892C73.728 25.4352 72.8332 25.8396 72.0956 26.4585C70.6663 27.6293 69.3541 28.9348 68.1773 30.3569C66.7849 31.897 65.4769 33.5107 64.2591 35.1909H74.9167C75.5218 35.2263 76.127 35.1217 76.6845 34.8849Z" fill="#333333"/>
</mask>
<g mask="url(#mask0_320:203)">
<rect x="-3.05176e-05" y="0.186035" width="134.452" height="134.452" fill="white"/>
</g>
</svg>
