<svg width="75" height="50" viewBox="0 0 75 50" fill="none" xmlns="http://www.w3.org/2000/svg">
<g clip-path="url(#clip0_943_15605)">
<path d="M56.3146 28.932C57.2021 26.2406 57.4958 23.3881 57.1757 20.5717C60.4047 18.5653 63.4185 16.5911 65.9694 14.7141C76.3347 7.16288 75.1399 4.71412 74.7417 3.92663C74.2681 2.94497 73.0733 2.45953 71.1467 2.45953H70.3932H70.2641C66.2708 2.74001 59.7374 4.61703 51.6002 7.85328C51.543 7.86535 51.4884 7.88725 51.4387 7.918L51.0297 8.07981C47.3449 4.67008 42.5043 2.79202 37.4892 2.82631C33.3251 2.83328 29.2685 4.15272 25.8939 6.59787C22.5193 9.04302 19.9974 12.49 18.6854 16.4509C17.794 19.1415 17.493 21.9933 17.8028 24.8112L16.6081 25.5555L15.5317 26.2352C14.9612 26.5911 14.38 26.9687 13.788 27.3139L13.3144 27.6267C10.2175 29.6291 7.26132 31.8421 4.46684 34.2503C-0.914904 39.0291 -0.0753518 40.7228 0.247553 41.4024C0.742674 42.384 1.92666 42.8695 3.84256 42.8695C7.82505 42.8695 15.1873 40.712 24.0349 37.206C26.4689 39.468 29.4309 41.0809 32.649 41.8967C35.867 42.7125 39.238 42.705 42.4524 41.8749C45.6667 41.0448 48.6216 39.4187 51.0456 37.1459C53.4696 34.8732 55.285 32.0265 56.3253 28.8673L56.3146 28.932ZM58.887 11.4887H59.3176H59.5221H59.6513C59.4898 11.8446 58.7902 12.9342 55.8302 15.1456C55.6365 14.671 55.432 14.1963 55.2059 13.7325C54.9799 13.2686 54.7216 12.8155 54.4525 12.384C55.8874 11.9064 57.3713 11.5916 58.8763 11.4455L58.887 11.4887ZM20.2999 16.9903C21.2525 14.1069 22.9115 11.5092 25.1252 9.43484C27.3389 7.36053 30.0365 5.87597 32.9709 5.11712C35.9053 4.35827 38.9828 4.34937 41.9215 5.09125C44.8602 5.83312 47.5663 7.30205 49.7919 9.36353L50.1686 9.7303C50.5856 10.137 50.9808 10.5655 51.3526 11.014V11.014C51.7293 11.4671 52.0845 11.9309 52.429 12.4164V12.5027C52.8728 13.1506 53.272 13.8282 53.6237 14.5307C53.9113 15.065 54.1665 15.6162 54.3879 16.1812L53.8174 16.6127C48.9819 19.8063 43.9488 22.6887 38.7486 25.2427C33.3931 27.9931 27.8589 30.3789 22.1835 32.384C21.8481 31.8717 21.5391 31.3424 21.2579 30.7983C20.8315 29.9614 20.4716 29.0921 20.1815 28.1985C20.0524 27.8101 19.934 27.411 19.8371 27.0119C19.8371 26.85 19.7618 26.6882 19.7295 26.5264C19.6326 26.1057 19.5465 25.6742 19.4819 25.2535C19.1163 22.4727 19.3963 19.6449 20.2999 16.9903V16.9903ZM15.4779 33.8835H15.338C15.5102 33.5275 16.2098 32.4487 19.1698 30.2265C19.3635 30.7012 19.5573 31.1758 19.7941 31.6397C20.0308 32.1035 20.2892 32.5566 20.5475 32.9989C19.0413 33.5135 17.4745 33.829 15.8869 33.9374C15.7495 33.9285 15.6129 33.9105 15.4779 33.8835V33.8835ZM3.84256 41.219C2.51865 41.219 1.90513 40.9493 1.77597 40.6904C1.45306 40.0431 2.75545 37.4541 10.0316 32.0604C10.6558 31.6073 11.3017 31.1435 11.969 30.6796L12.0551 30.6149C12.6686 30.1942 13.2929 29.7627 13.9495 29.3312L14.3047 29.0938L16.0376 28.0151L16.6834 27.6052L18.0827 26.7206C18.0827 26.85 18.1472 26.9579 18.1688 27.0874C18.2764 27.5297 18.384 27.9719 18.5132 28.4034C18.508 28.4645 18.508 28.5258 18.5132 28.5868C17.566 29.288 16.791 29.9029 16.156 30.4423C15.9515 30.6149 15.7685 30.7875 15.5963 30.9493L15.1442 31.3916L15.0904 31.4563L14.7244 31.8339L14.6599 31.9202L14.3908 32.233L14.3047 32.3409L14.1109 32.6106L14.0356 32.74C13.9887 32.8059 13.9456 32.8743 13.9064 32.945C13.9064 32.945 13.8526 33.0421 13.8311 33.096C13.8015 33.1478 13.7763 33.2019 13.7557 33.2578L13.6696 33.4412V33.5706C13.6647 33.6281 13.6647 33.6858 13.6696 33.7432C13.6696 33.7432 13.6696 33.808 13.6696 33.8295C13.6644 33.8906 13.6644 33.9519 13.6696 34.0129V34.0777C13.6644 34.1387 13.6644 34.2 13.6696 34.261C13.6635 34.3184 13.6635 34.3763 13.6696 34.4336V34.4336L13.7557 34.6278C14.0786 35.2643 14.8321 35.5771 15.9084 35.5771C19.6326 35.5771 29.1475 32.0496 39.5881 26.7853C45.0759 24.0835 50.3731 21.0091 55.4427 17.5836C61.4703 13.3441 61.7717 11.7368 61.255 10.7227C60.9429 10.0863 60.1787 9.77345 59.1023 9.77345H58.5749H58.2735H57.9399H57.6708L57.2187 9.84896H56.9819L56.4007 9.96762H56.2069L55.4858 10.1402H55.3674C54.7754 10.2912 54.1403 10.4746 53.4515 10.6904L53.3869 10.6041C53.0515 10.1191 52.6922 9.65107 52.3106 9.20171C60.7384 6.08413 67.5732 4.17474 71.1467 4.17474C72.4813 4.17474 73.0841 4.44443 73.2132 4.69254C73.5469 5.35058 72.2338 7.99352 64.9577 13.3225C57.0965 18.8744 48.8118 23.7979 40.1801 28.0475C24.5515 35.9223 9.94546 41.219 3.84256 41.219ZM45.6372 38.9105C42.469 40.5077 38.9018 41.1354 35.3802 40.7153C31.8585 40.2953 28.538 38.846 25.8324 36.548C30.6006 34.5739 35.7455 32.233 40.9874 29.5793C46.2292 26.9256 51.1373 24.1855 55.5827 21.5642C55.7408 23.8748 55.4483 26.1941 54.7216 28.3927C53.9775 30.6612 52.7913 32.7591 51.2318 34.5646C49.6724 36.3701 47.7707 37.8473 45.6372 38.9105V38.9105Z" fill="#CCCCCC"/>
<path d="M8.91218 38.2309C8.63818 38.2321 8.36457 38.2104 8.09415 38.1661C7.88871 38.1426 7.6944 38.0602 7.53445 37.9288C7.51934 37.9026 7.51138 37.8728 7.51138 37.8425C7.51138 37.8122 7.51934 37.7825 7.53445 37.7562C7.51638 37.66 7.51638 37.5612 7.53445 37.465C7.63638 37.2137 7.76637 36.9749 7.92194 36.753C8.2619 36.2506 8.64356 35.7779 9.06287 35.3398C9.48264 34.8975 9.90242 34.466 10.333 34.0561C10.7635 33.6462 11.1725 33.2578 11.5815 32.8911L12.7117 31.8123L14.4446 30.2697L15.0904 29.6764L14.3262 30.1079C13.8419 30.3884 13.153 30.7983 12.3565 31.3485C11.9582 31.6181 11.5277 31.9202 11.0972 32.2546C10.6666 32.589 10.193 32.945 9.7302 33.3333C9.2476 33.7315 8.78764 34.1565 8.35248 34.6063C7.88806 35.1026 7.47012 35.6406 7.10391 36.2136C6.8965 36.5176 6.73003 36.8476 6.60879 37.1953C6.54502 37.4049 6.51593 37.6235 6.52268 37.8425C6.53577 38.1074 6.63394 38.3609 6.80253 38.5653C7.08776 38.8651 7.4684 39.0559 7.87888 39.1047C8.21152 39.1419 8.54725 39.1419 8.87989 39.1047C9.48929 39.0673 10.0943 38.9771 10.6882 38.835C11.2371 38.7163 11.7645 38.5761 12.2058 38.4358C13.1315 38.1661 13.8849 37.8749 14.3585 37.6699C14.6276 37.5728 14.8213 37.4757 14.9613 37.4218L15.1765 37.3247L12.0336 37.8641C11.0036 38.0635 9.96026 38.1861 8.91218 38.2309V38.2309Z" fill="#CCCCCC"/>
<path d="M64.0641 7.66989C64.6628 7.58253 65.2674 7.54285 65.8724 7.55123C66.1456 7.55419 66.4171 7.5941 66.6796 7.66989C66.7709 7.7019 66.8577 7.74539 66.938 7.79934C66.9918 7.85327 67.0133 7.87485 67.0241 7.918C67.0415 8.11741 66.9964 8.31731 66.8949 8.48974C66.7775 8.73521 66.6331 8.96678 66.4644 9.18014C65.8069 10.0206 65.0873 10.8103 64.3117 11.5426L62.0083 13.7001L62.2128 13.5922L62.7725 13.2578C63.2461 12.9558 63.9242 12.5243 64.6992 11.9417C65.0866 11.6505 65.4957 11.3376 65.9154 10.9601C66.3695 10.5752 66.7907 10.153 67.1748 9.69794C67.3905 9.44348 67.5816 9.16895 67.7452 8.87809C67.9712 8.51077 68.059 8.0747 67.9928 7.64831C67.931 7.38778 67.783 7.15586 67.573 6.99028C67.4065 6.84754 67.2123 6.74101 67.0025 6.67744C66.6543 6.56355 66.2922 6.49821 65.9262 6.48326C65.2639 6.46722 64.6014 6.50691 63.9457 6.60193C63.3107 6.68823 62.6972 6.82846 62.1052 6.95791C61.5132 7.08736 60.9535 7.24918 60.4153 7.4002C59.8771 7.55123 59.3389 7.72382 58.9407 7.88564C58.0258 8.18769 57.2831 8.50052 56.788 8.72706C56.2929 8.9536 55.97 9.16935 55.97 9.16935L56.831 8.99675L59.0914 8.53289L60.5983 8.23084C61.1364 8.12296 61.6746 8.03666 62.2774 7.92879C62.8801 7.82091 63.5044 7.7454 64.0641 7.66989Z" fill="#CCCCCC"/>
<path d="M5.79073 6.14887C6.5867 6.38687 7.4058 6.53876 8.23404 6.60194C8.27368 7.48954 8.39986 8.37112 8.61076 9.23409C8.72222 9.65674 8.86247 10.0712 9.03054 10.4746C9.09239 10.6372 9.16428 10.7957 9.24581 10.9493C9.32734 10.7957 9.39923 10.6372 9.46108 10.4746C9.63098 10.0696 9.77831 9.65548 9.90238 9.23409C10.1281 8.37262 10.2687 7.491 10.3222 6.60194C11.1511 6.54398 11.9707 6.39198 12.7655 6.14887C13.1596 6.02972 13.5445 5.8819 13.9172 5.70658C14.0655 5.63668 14.2093 5.55741 14.3477 5.46926C14.3477 5.46926 14.1863 5.37217 13.9172 5.24272C13.5451 5.06318 13.1601 4.91174 12.7655 4.78964C11.9713 4.54037 11.1517 4.38116 10.3222 4.31499C10.2623 3.43731 10.1218 2.56702 9.90238 1.71521C9.79051 1.29399 9.65394 0.879746 9.49337 0.474649C9.43152 0.312103 9.35963 0.153579 9.2781 0C9.19657 0.153579 9.12468 0.312103 9.06283 0.474649C8.87784 0.874792 8.72662 1.28976 8.61076 1.71521C8.40086 2.56741 8.27468 3.43816 8.23404 4.31499C7.4058 4.37818 6.5867 4.53007 5.79073 4.76807C5.39761 4.89015 5.01289 5.03789 4.63904 5.21036C4.49094 5.27679 4.34715 5.35245 4.2085 5.43689C4.34504 5.52809 4.48907 5.60748 4.63904 5.67422C5.01208 5.8577 5.39681 6.01626 5.79073 6.14887V6.14887Z" fill="#CCCCCC"/>
<path d="M71.0389 33.5383C70.2435 33.3 69.4239 33.1517 68.5956 33.096C68.5421 32.2034 68.4015 31.3182 68.1758 30.4531C68.0606 30.0329 67.9241 29.6188 67.7668 29.2125C67.7039 29.0539 67.632 28.8991 67.5515 28.7487C67.4711 28.8991 67.3992 29.0539 67.3363 29.2125C67.179 29.6188 67.0425 30.0329 66.9273 30.4531C66.7016 31.3182 66.561 32.2034 66.5075 33.096C65.6786 33.154 64.8589 33.306 64.0642 33.5491C63.67 33.6682 63.2851 33.8161 62.9125 33.9914C62.7644 34.0578 62.6206 34.1335 62.4819 34.2179C62.6185 34.3091 62.7625 34.3885 62.9125 34.4552C63.2871 34.6259 63.6717 34.7736 64.0642 34.8975C64.8601 35.1355 65.6792 35.2874 66.5075 35.3506C66.5631 36.2387 66.7 37.1198 66.9165 37.9827C67.0279 38.4054 67.1682 38.8199 67.3363 39.2233C67.3981 39.3859 67.47 39.5444 67.5515 39.698C67.6331 39.5444 67.705 39.3859 67.7668 39.2233C67.9306 38.8194 68.0672 38.4049 68.1758 37.9827C68.4015 37.1213 68.5421 36.2397 68.5956 35.3506C69.4238 35.2874 70.2429 35.1355 71.0389 34.8975C71.4314 34.7736 71.816 34.6259 72.1906 34.4552C72.3406 34.3885 72.4846 34.3091 72.6211 34.2179C72.4825 34.1335 72.3387 34.0578 72.1906 33.9914C71.8185 33.8118 71.4335 33.6604 71.0389 33.5383V33.5383Z" fill="#CCCCCC"/>
<path d="M57.0465 45.5771C56.4719 45.4038 55.8798 45.2953 55.2813 45.2535C55.2182 44.6089 55.0883 43.9726 54.8938 43.3549C54.8164 43.0539 54.7194 42.7584 54.6032 42.4703C54.56 42.3523 54.5096 42.237 54.4525 42.1251C54.3882 42.235 54.3342 42.3505 54.291 42.4703C54.1748 42.7584 54.0777 43.0539 54.0004 43.3549C53.8422 43.9944 53.752 44.6489 53.7313 45.3074C53.1335 45.3555 52.5421 45.4639 51.9661 45.6311C51.6861 45.7192 51.4127 45.8274 51.1481 45.9547C51.0391 45.9985 50.9346 46.0527 50.8359 46.1165C50.9355 46.1819 51.0398 46.2396 51.1481 46.2891C51.4147 46.4117 51.6878 46.5197 51.9661 46.6127C52.5426 46.776 53.1339 46.8808 53.7313 46.9256C53.7675 47.5663 53.8648 48.202 54.0219 48.8242C54.1073 49.1275 54.2079 49.4263 54.3233 49.7195C54.3674 49.8354 54.4214 49.9473 54.4848 50.0539C54.5409 49.9452 54.5912 49.8336 54.6354 49.7195C54.7509 49.4263 54.8515 49.1275 54.9368 48.8242C55.0926 48.2014 55.1935 47.5661 55.2382 46.9256C55.8529 46.8726 56.4596 46.7495 57.0465 46.5588C57.3265 46.4706 57.5999 46.3624 57.8645 46.2352C57.9753 46.1838 58.0831 46.1262 58.1874 46.0626C58.084 46.0005 57.9761 45.9464 57.8645 45.9007C57.5999 45.7735 57.3265 45.6653 57.0465 45.5771V45.5771Z" fill="#CCCCCC"/>
</g>
<defs>
<clipPath id="clip0_943_15605">
<rect width="75" height="50" fill="white"/>
</clipPath>
</defs>
</svg>
