<svg width="20" height="20" viewBox="0 0 20 20" fill="none" xmlns="http://www.w3.org/2000/svg">
<path fill-rule="evenodd" clip-rule="evenodd" d="M6.87165 15.7195C7.26901 15.8365 7.68595 15.6092 7.80291 15.2118L8.43002 13.0814C9.47123 13.3062 10.5292 13.3062 11.5704 13.0814L12.1973 15.2118C12.3142 15.6091 12.7311 15.8365 13.1285 15.7195C13.5258 15.6026 13.7532 15.1857 13.6363 14.7883L12.9999 12.6257C13.862 12.2597 14.6932 11.7359 15.4775 11.062L16.9458 12.6731C17.2248 12.9793 17.6992 13.0013 18.0053 12.7222C18.3114 12.4432 18.3334 11.9689 18.0544 11.6627L16.5507 10.0128C17.112 9.39295 17.6426 8.68717 18.1361 7.89755C18.3556 7.5463 18.2489 7.08358 17.8976 6.86405C17.5463 6.64452 17.0836 6.7513 16.8641 7.10255C16.2816 8.03453 15.6538 8.82064 14.9984 9.46541C13.993 10.4545 12.9255 11.1087 11.8535 11.454C10.6285 11.8486 9.37205 11.8486 8.14705 11.454C7.07495 11.1087 6.00742 10.4545 5.00205 9.4654C4.34657 8.82055 3.71858 8.03452 3.1361 7.10255C2.91657 6.7513 2.45385 6.64452 2.1026 6.86405C1.75135 7.08358 1.64457 7.5463 1.8641 7.89755C2.35767 8.68726 2.88833 9.39299 3.44966 10.0128L1.94581 11.6627C1.66677 11.9688 1.68874 12.4432 1.99487 12.7222C2.301 13.0012 2.77536 12.9793 3.0544 12.6731L4.52294 11.062C5.30722 11.7359 6.13848 12.2597 7.00052 12.6257L6.36396 14.7883C6.24699 15.1856 6.47429 15.6026 6.87165 15.7195Z" fill="#CED4DA"/>
</svg>
