<svg width="20" height="20" viewBox="0 0 20 20" fill="none" xmlns="http://www.w3.org/2000/svg">
<path d="M10.0001 13.3334C11.8411 13.3334 13.3335 11.841 13.3335 10C13.3335 8.15907 11.8411 6.66669 10.0001 6.66669C8.15917 6.66669 6.66679 8.15907 6.66679 10C6.66679 11.841 8.15917 13.3334 10.0001 13.3334Z" fill="#666666"/>
<path fill-rule="evenodd" clip-rule="evenodd" d="M1.8725 10.411C1.85319 10.3814 1.83608 10.3507 1.82123 10.319C1.72381 10.1123 1.72874 9.87834 1.82123 9.68103C1.83608 9.64934 1.85319 9.61861 1.8725 9.58908C4.04529 6.1198 6.95977 4.25 10.0001 4.25C13.0404 4.25 15.9549 6.1198 18.1277 9.58907C18.147 9.61863 18.1641 9.6494 18.179 9.68112C18.2272 9.78332 18.2503 9.8922 18.2502 10C18.2501 10.1452 18.2078 10.2885 18.1277 10.411C15.9549 13.8802 13.0404 15.75 10.0001 15.75C6.95977 15.75 4.04529 13.8802 1.8725 10.411ZM10.0001 5.75C7.72858 5.75 5.34139 7.08727 3.39307 10C5.34139 12.9128 7.72858 14.25 10.0001 14.25C12.2716 14.25 14.6588 12.9128 16.6071 10C14.6588 7.08727 12.2716 5.75 10.0001 5.75Z" fill="#666666"/>
</svg>
