<svg width="105" height="85" viewBox="0 0 105 85" fill="none" xmlns="http://www.w3.org/2000/svg">
<rect x="32" width="64" height="85" rx="4" fill="#F4F4F4"/>
<rect x="39" y="22" width="50" height="9" rx="4" fill="#E6E6E6"/>
<rect x="39" y="38" width="50" height="9" rx="4" fill="#E6E6E6"/>
<rect x="39" y="54" width="50" height="9" rx="4" fill="#E6E6E6"/>
<path opacity="0.4" d="M47.4252 70.8233C44.0469 71.1396 40.6493 70.4425 37.6617 68.8201C34.6741 67.1978 32.2308 64.7231 30.6407 61.7089C29.0506 58.6947 28.3851 55.2763 28.7282 51.8859C29.0714 48.4956 30.4079 45.2855 32.5687 42.6614C34.7295 40.0374 37.6176 38.1173 40.8679 37.1439C44.1182 36.1705 47.5848 36.1874 50.8293 37.1926C54.0737 38.1978 56.9505 40.1461 59.0959 42.7912C61.2412 45.4363 62.5588 48.6594 62.8821 52.053C63.0968 54.3074 62.8673 56.5813 62.2066 58.7448C61.5459 60.9084 60.4671 62.9192 59.0317 64.6623C57.5962 66.4054 55.8324 67.8467 53.8409 68.9038C51.8494 69.961 49.6693 70.6132 47.4252 70.8233Z" fill="#FAFAFA"/>
<path opacity="0.4" d="M53.3799 38.2083L32.1111 64.0372C31.9526 63.8257 31.7988 63.6132 31.652 63.3992C30.6922 62.0023 29.9455 60.4696 29.4365 58.8518L47.8069 36.5421C49.7456 36.7715 51.6309 37.3351 53.3799 38.2083Z" fill="#FAFAFA"/>
<path opacity="0.4" d="M61.1485 45.9649L41.1378 70.2501C38.6078 69.5292 36.2753 68.2345 34.3204 66.4659L56.1701 39.9437C58.2652 41.5431 59.9683 43.6029 61.1485 45.9649Z" fill="#FAFAFA"/>
<path d="M25.5574 51.1571L25.3201 51.1282C25.4664 49.9102 25.7192 48.7076 26.0757 47.5345L26.3021 47.6048C25.9507 48.7645 25.7016 49.9532 25.5574 51.1571ZM27.2589 45.0942L27.0406 44.9929C28.4162 41.99 30.4864 39.3618 33.079 37.3271L33.228 37.5161C30.6642 39.5267 28.6175 42.1251 27.2589 45.0942ZM51.6163 34.0203C50.7693 33.7659 49.9067 33.5674 49.0341 33.4258L49.0727 33.1904C49.9533 33.3336 50.8237 33.5346 51.6783 33.7921L51.6163 34.0203Z" fill="#CCCCCC"/>
<path opacity="0.3" d="M25.5574 51.1571L25.3201 51.1282C25.4664 49.9102 25.7192 48.7076 26.0757 47.5345L26.3021 47.6048C25.9507 48.7645 25.7016 49.9532 25.5574 51.1571ZM27.2589 45.0942L27.0406 44.9929C28.4162 41.99 30.4864 39.3618 33.079 37.3271L33.228 37.5161C30.6642 39.5267 28.6175 42.1251 27.2589 45.0942ZM51.6163 34.0203C50.7693 33.7659 49.9067 33.5674 49.0341 33.4258L49.0727 33.1904C49.9533 33.3336 50.8237 33.5346 51.6783 33.7921L51.6163 34.0203Z" fill="black"/>
<path d="M61.3714 41.423C58.2727 37.3741 53.7444 34.6746 48.7246 33.8839C43.7048 33.0932 38.5782 34.2718 34.407 37.1756C30.2358 40.0793 27.3397 44.4857 26.3186 49.4817C25.2976 54.4777 26.2299 59.6805 28.9224 64.0122C27.4859 64.8862 26.0618 65.7967 24.6605 66.7344C22.6363 68.0708 20.6412 69.4452 18.6751 70.8576C16.7085 72.2602 14.7572 73.6891 12.8324 75.1638C11.8639 75.8889 10.9185 76.6435 9.95985 77.3813C9.45927 77.7365 9.03216 78.186 8.70216 78.7048C8.52406 78.9934 8.37835 79.301 8.2677 79.622C8.13087 80.0022 8.04988 80.4005 8.02725 80.8044C7.99612 81.5312 8.2253 82.2456 8.67323 82.8181C9.12116 83.3907 9.7582 83.7834 10.4689 83.9253C10.8622 84.0047 11.2651 84.0246 11.6641 83.9844C12.0013 83.9532 12.3339 83.8839 12.6555 83.7778C13.2391 83.5805 13.7781 83.2696 14.2417 82.8629C15.1866 82.1059 16.1424 81.3663 17.0774 80.5967C18.9523 79.0811 20.8183 77.5233 22.6543 75.9497C24.4903 74.3761 26.3002 72.759 28.0813 71.1088C29.3037 69.9664 30.5222 68.8052 31.7323 67.6041C35.2777 71.2449 40.076 73.3835 45.1381 73.5792C50.2002 73.7749 55.1404 72.0127 58.9406 68.6559C62.7408 65.2991 65.1113 60.6034 65.5635 55.5367C66.0157 50.47 64.5153 45.4184 61.3714 41.423ZM55.4313 66.0223C53.0005 67.9319 50.0591 69.0736 46.9791 69.3029C43.899 69.5322 40.8187 68.8389 38.1277 67.3106C35.4366 65.7822 33.2556 63.4876 31.8605 60.7168C30.4655 57.946 29.9189 54.8235 30.2901 51.7441C30.6612 48.6648 31.9333 45.7668 33.9456 43.4168C35.9578 41.0668 38.6198 39.3702 41.5949 38.5416C44.57 37.7131 47.7247 37.7897 50.6599 38.7618C53.5951 39.7339 56.1791 41.5579 58.0851 44.0031C59.3506 45.6267 60.2859 47.4841 60.8374 49.4694C61.389 51.4547 61.546 53.5288 61.2996 55.5735C61.0532 57.6182 60.4081 59.5933 59.4012 61.3861C58.3943 63.1789 57.0453 64.7543 55.4313 66.0223Z" fill="#CCCCCC"/>
<circle cx="86.5" cy="12.5" r="2.5" fill="#E5E5E5"/>
<circle cx="102.5" cy="35.5" r="2.5" fill="#E5E5E5"/>
</svg>
