<svg width="70" height="92" viewBox="0 0 70 92" fill="none" xmlns="http://www.w3.org/2000/svg">
<path d="M48.6663 33.1036V20.2247C48.5675 14.8268 46.3636 9.68356 42.5288 5.9013C38.6939 2.11904 33.5345 0 28.1604 0C22.7863 0 17.627 2.11904 13.7921 5.9013C9.95731 9.68356 7.75344 14.8268 7.65464 20.2247V33.1036C5.6219 33.1146 3.67606 33.9331 2.24193 35.3804C0.807795 36.8276 0.0018528 38.7861 5.11726e-05 40.8282V74.2618C-0.00736101 76.3052 0.790719 78.2684 2.21986 79.7223C3.649 81.1763 5.59297 82.0028 7.6269 82.0212H48.6385C50.6773 82.0194 52.632 81.2049 54.0736 79.7567C55.5152 78.3085 56.3259 76.3448 56.3278 74.2966V40.863C56.3351 38.8137 55.5323 36.8452 54.0957 35.3903C52.6591 33.9353 50.7062 33.1128 48.6663 33.1036ZM12.7785 20.2247C12.7785 16.1273 14.3987 12.1978 17.2827 9.30049C20.1668 6.40321 24.0783 4.77554 28.157 4.77554C32.2356 4.77554 36.1472 6.40321 39.0312 9.30049C41.9152 12.1978 43.5355 16.1273 43.5355 20.2247V33.1036H12.7785V20.2247ZM51.2247 74.2966C51.2247 74.979 50.9554 75.6334 50.4758 76.1165C49.9962 76.5996 49.3454 76.872 48.6663 76.8738H7.6269C6.94651 76.8738 6.29399 76.6023 5.81288 76.119C5.33178 75.6357 5.06149 74.9802 5.06149 74.2966V40.863C5.06149 40.1795 5.33178 39.524 5.81288 39.0407C6.29399 38.5573 6.94651 38.2858 7.6269 38.2858H48.6385C49.3177 38.2877 49.9684 38.56 50.448 39.0431C50.9277 39.5262 51.197 40.1807 51.197 40.863L51.2247 74.2966Z" fill="#26D07C"/>
<path d="M27.6664 48.4221C26.8812 48.4221 26.1282 48.6913 25.5729 49.1705C25.0177 49.6497 24.7058 50.2996 24.7058 50.9773V63.7809C24.7453 64.4365 25.0749 65.0539 25.6266 65.5059C26.1782 65.9579 26.9098 66.2099 27.6704 66.2099C28.431 66.2099 29.1627 65.9579 29.7143 65.5059C30.2659 65.0539 30.5955 64.4365 30.6351 63.7809V50.9773C30.6351 50.6412 30.5582 50.3083 30.4089 49.9979C30.2596 49.6874 30.0408 49.4054 29.7651 49.1681C29.4893 48.9307 29.162 48.7426 28.8019 48.6146C28.4417 48.4866 28.0559 48.4212 27.6664 48.4221Z" fill="#26D07C"/>
<path d="M40.6035 65C43.4035 64.6 49.7702 60.1667 52.6035 58C53.4369 58.6667 55.3035 60.2 56.1035 61C57.1035 62 60.6035 64 64.6035 64.5C68.6035 65 67.1035 65 68.1035 68.5C69.1035 72 66.1035 79 65.6035 81C65.1035 83 56.1035 90 52.6035 90.5C49.1035 91 41.1034 82.5 38.6034 79.5C36.6034 77.1 37.1035 69.1667 37.6035 65.5C37.4369 65.5 37.8035 65.4 40.6035 65Z" fill="#26D07C"/>
<path d="M69.1278 66.2965C69.1329 65.5952 68.8638 64.9195 68.3775 64.4127C67.8912 63.9059 67.226 63.6078 66.5229 63.5817C61.5476 63.4396 57.4427 61.5093 54.6417 57.9744C54.3838 57.6692 54.0621 57.4238 53.6991 57.2555C53.3361 57.0872 52.9406 57 52.5402 57C52.1399 57 51.7443 57.0872 51.3813 57.2555C51.0184 57.4238 50.6966 57.6692 50.4387 57.9744C47.6377 61.5478 43.7199 63.4307 38.7774 63.5698C38.0761 63.5982 37.4134 63.8974 36.9295 64.4041C36.4456 64.9107 36.1783 65.5851 36.1843 66.2847C36.1843 71.8268 35.51 78.3755 40.7734 84.3026C45.4843 89.4243 50.9882 92 52.5714 92C55.5922 92 61.5773 87.5088 64.5506 84.2759C69.805 78.3844 69.1278 71.8416 69.1278 66.2965ZM62.9199 82.8341C59.7922 86.2358 54.4724 89.8329 52.5744 89.8329C52.5159 89.8364 52.4574 89.8284 52.4021 89.8092C48.8021 88.4888 45.4368 86.1411 42.4071 82.8489C37.7586 77.6147 38.3823 71.7913 38.3823 66.2965C38.3795 66.1654 38.4267 66.0381 38.5143 65.9403C38.602 65.8425 38.7236 65.7815 38.8546 65.7695C44.4684 65.6126 48.9536 63.4455 52.1615 59.3481C52.2667 59.2538 52.4032 59.2017 52.5447 59.2017C52.6861 59.2017 52.8226 59.2538 52.9278 59.3481C56.1357 63.3952 60.814 65.6185 66.4516 65.7784C66.5842 65.7882 66.708 65.8483 66.7975 65.9463C66.887 66.0444 66.9354 66.1729 66.9328 66.3054C66.9328 71.7913 67.5565 77.6147 62.9199 82.8341Z" fill="#26D07C"/>
<path d="M58.3308 69.3093L50.4633 77.343L47.9923 74.8228C47.7906 74.6168 47.517 74.5011 47.2318 74.5011C46.9465 74.5011 46.673 74.6168 46.4713 74.8228C46.2696 75.0288 46.1562 75.3081 46.1562 75.5994C46.1562 75.8907 46.2696 76.17 46.4713 76.376L49.7028 79.6757C49.8022 79.7784 49.9206 79.86 50.0512 79.9157C50.1817 79.9713 50.3218 80 50.4633 80C50.6048 80 50.7448 79.9713 50.8754 79.9157C51.0059 79.86 51.1244 79.7784 51.2238 79.6757L59.8402 70.8774C60.0423 70.6714 60.156 70.3919 60.1562 70.1004C60.1565 69.8088 60.0434 69.5291 59.8417 69.3227C59.6399 69.1164 59.3662 69.0003 59.0807 69C58.7952 68.9997 58.5212 69.1153 58.3191 69.3212L58.3308 69.3093Z" fill="white"/>
</svg>
